<mxfile host="Electron" modified="2024-04-14T13:33:14.800Z" agent="Mozilla/5.0 (Windows NT 10.0; Win64; x64) AppleWebKit/537.36 (KHTML, like Gecko) draw.io/24.0.4 Chrome/120.0.6099.109 Electron/28.1.0 Safari/537.36" etag="3YoEogLchf1IetZDR7M_" version="24.0.4" type="device">
  <diagram name="Page-1" id="dsL2FTwEJPHxh5IaD0IW">
    <mxGraphModel dx="1400" dy="839" grid="1" gridSize="10" guides="1" tooltips="1" connect="1" arrows="1" fold="1" page="1" pageScale="1" pageWidth="850" pageHeight="1100" math="0" shadow="0">
      <root>
        <mxCell id="0" />
        <mxCell id="1" parent="0" />
        <mxCell id="Gw3BAyurNsttADBD2uzQ-12" value="" style="rounded=1;whiteSpace=wrap;html=1;fillColor=#d5e8d4;strokeColor=#82b366;" parent="1" vertex="1">
          <mxGeometry x="680" y="540" width="360" height="490" as="geometry" />
        </mxCell>
        <mxCell id="Gw3BAyurNsttADBD2uzQ-11" value="" style="rounded=1;whiteSpace=wrap;html=1;fillColor=#fff2cc;strokeColor=#d6b656;" parent="1" vertex="1">
          <mxGeometry x="680" y="20" width="360" height="490" as="geometry" />
        </mxCell>
        <mxCell id="Gw3BAyurNsttADBD2uzQ-10" value="" style="rounded=1;whiteSpace=wrap;html=1;fillColor=#f5f5f5;fontColor=#333333;strokeColor=#666666;" parent="1" vertex="1">
          <mxGeometry x="150" y="110" width="380" height="490" as="geometry" />
        </mxCell>
        <mxCell id="Gw3BAyurNsttADBD2uzQ-1" value="Actor" style="shape=umlActor;verticalLabelPosition=bottom;verticalAlign=top;html=1;outlineConnect=0;" parent="1" vertex="1">
          <mxGeometry x="20" y="330" width="30" height="60" as="geometry" />
        </mxCell>
        <mxCell id="Gw3BAyurNsttADBD2uzQ-3" value="введення координат отримувача" style="rounded=0;whiteSpace=wrap;html=1;" parent="1" vertex="1">
          <mxGeometry x="185" y="155" width="120" height="60" as="geometry" />
        </mxCell>
        <mxCell id="Gw3BAyurNsttADBD2uzQ-20" value="" style="edgeStyle=orthogonalEdgeStyle;rounded=0;orthogonalLoop=1;jettySize=auto;html=1;" parent="1" source="Gw3BAyurNsttADBD2uzQ-4" target="Gw3BAyurNsttADBD2uzQ-18" edge="1">
          <mxGeometry relative="1" as="geometry" />
        </mxCell>
        <mxCell id="Gw3BAyurNsttADBD2uzQ-4" value="розрахунок орієнтованого часу доставки для кожного АЗД із списку" style="rounded=0;whiteSpace=wrap;html=1;" parent="1" vertex="1">
          <mxGeometry x="715" y="240" width="120" height="100" as="geometry" />
        </mxCell>
        <mxCell id="Gw3BAyurNsttADBD2uzQ-5" value="введення ваги посилки" style="rounded=0;whiteSpace=wrap;html=1;" parent="1" vertex="1">
          <mxGeometry x="185" y="225" width="120" height="60" as="geometry" />
        </mxCell>
        <mxCell id="Gw3BAyurNsttADBD2uzQ-6" value="введення розмірів посилки" style="rounded=0;whiteSpace=wrap;html=1;" parent="1" vertex="1">
          <mxGeometry x="185" y="300" width="120" height="60" as="geometry" />
        </mxCell>
        <mxCell id="Gw3BAyurNsttADBD2uzQ-17" value="" style="edgeStyle=orthogonalEdgeStyle;rounded=0;orthogonalLoop=1;jettySize=auto;html=1;" parent="1" source="Gw3BAyurNsttADBD2uzQ-7" target="Gw3BAyurNsttADBD2uzQ-4" edge="1">
          <mxGeometry relative="1" as="geometry" />
        </mxCell>
        <mxCell id="Gw3BAyurNsttADBD2uzQ-26" value="список не пустий" style="edgeLabel;html=1;align=center;verticalAlign=middle;resizable=0;points=[];" parent="Gw3BAyurNsttADBD2uzQ-17" vertex="1" connectable="0">
          <mxGeometry x="-0.2909" y="-3" relative="1" as="geometry">
            <mxPoint x="3" y="-5" as="offset" />
          </mxGeometry>
        </mxCell>
        <mxCell id="Gw3BAyurNsttADBD2uzQ-28" value="" style="edgeStyle=orthogonalEdgeStyle;rounded=0;orthogonalLoop=1;jettySize=auto;html=1;" parent="1" source="Gw3BAyurNsttADBD2uzQ-7" target="Gw3BAyurNsttADBD2uzQ-27" edge="1">
          <mxGeometry relative="1" as="geometry" />
        </mxCell>
        <mxCell id="Gw3BAyurNsttADBD2uzQ-29" value="список пустий" style="edgeLabel;html=1;align=center;verticalAlign=middle;resizable=0;points=[];" parent="Gw3BAyurNsttADBD2uzQ-28" vertex="1" connectable="0">
          <mxGeometry x="-0.136" y="-1" relative="1" as="geometry">
            <mxPoint x="-34" y="-1" as="offset" />
          </mxGeometry>
        </mxCell>
        <mxCell id="Gw3BAyurNsttADBD2uzQ-7" value="формування списку АЗД, що задовольняють запит (запас ходу, навантаження)" style="rounded=0;whiteSpace=wrap;html=1;" parent="1" vertex="1">
          <mxGeometry x="715" y="90" width="120" height="80" as="geometry" />
        </mxCell>
        <mxCell id="Gw3BAyurNsttADBD2uzQ-8" value="Перевірка заряду батареї" style="rounded=0;whiteSpace=wrap;html=1;" parent="1" vertex="1">
          <mxGeometry x="715" y="610" width="120" height="60" as="geometry" />
        </mxCell>
        <mxCell id="Gw3BAyurNsttADBD2uzQ-13" value="Процес доставки" style="text;html=1;align=center;verticalAlign=middle;whiteSpace=wrap;rounded=0;" parent="1" vertex="1">
          <mxGeometry x="700" y="550" width="150" height="30" as="geometry" />
        </mxCell>
        <mxCell id="Gw3BAyurNsttADBD2uzQ-14" value="Процес підготовки&lt;span style=&quot;color: rgba(0, 0, 0, 0); font-family: monospace; font-size: 0px; text-align: start; text-wrap: nowrap;&quot;&gt;%3CmxGraphModel%3E%3Croot%3E%3CmxCell%20id%3D%220%22%2F%3E%3CmxCell%20id%3D%221%22%20parent%3D%220%22%2F%3E%3CmxCell%20id%3D%222%22%20value%3D%22%D0%9F%D1%80%D0%BE%D1%86%D0%B5%D1%81%20%D0%B4%D0%BE%D1%81%D1%82%D0%B0%D0%B2%D0%BA%D0%B8%22%20style%3D%22text%3Bhtml%3D1%3Balign%3Dcenter%3BverticalAlign%3Dmiddle%3BwhiteSpace%3Dwrap%3Brounded%3D0%3B%22%20vertex%3D%221%22%20parent%3D%221%22%3E%3CmxGeometry%20x%3D%22680%22%20y%3D%22120%22%20width%3D%22150%22%20height%3D%2230%22%20as%3D%22geometry%22%2F%3E%3C%2FmxCell%3E%3C%2Froot%3E%3C%2FmxGraphModel%3E&lt;/span&gt;" style="text;html=1;align=center;verticalAlign=middle;whiteSpace=wrap;rounded=0;" parent="1" vertex="1">
          <mxGeometry x="705" y="30" width="150" height="30" as="geometry" />
        </mxCell>
        <mxCell id="Gw3BAyurNsttADBD2uzQ-15" value="Запит на доставку" style="text;html=1;align=center;verticalAlign=middle;whiteSpace=wrap;rounded=0;" parent="1" vertex="1">
          <mxGeometry x="170" y="120" width="150" height="30" as="geometry" />
        </mxCell>
        <mxCell id="Gw3BAyurNsttADBD2uzQ-30" style="edgeStyle=orthogonalEdgeStyle;rounded=0;orthogonalLoop=1;jettySize=auto;html=1;" parent="1" source="Gw3BAyurNsttADBD2uzQ-18" target="Gw3BAyurNsttADBD2uzQ-27" edge="1">
          <mxGeometry relative="1" as="geometry" />
        </mxCell>
        <mxCell id="Gw3BAyurNsttADBD2uzQ-18" value="вибір єдиного АЗД за параметром - найменший час доставки" style="rounded=0;whiteSpace=wrap;html=1;" parent="1" vertex="1">
          <mxGeometry x="715" y="380" width="120" height="70" as="geometry" />
        </mxCell>
        <mxCell id="Gw3BAyurNsttADBD2uzQ-19" value="АЗД - автономний засіб доставки" style="text;html=1;align=left;verticalAlign=middle;whiteSpace=wrap;rounded=0;" parent="1" vertex="1">
          <mxGeometry x="200" y="30" width="430" height="30" as="geometry" />
        </mxCell>
        <mxCell id="Gw3BAyurNsttADBD2uzQ-21" value="" style="endArrow=classic;html=1;rounded=0;exitX=1;exitY=0.3333333333333333;exitDx=0;exitDy=0;exitPerimeter=0;entryX=0;entryY=0.5;entryDx=0;entryDy=0;" parent="1" source="Gw3BAyurNsttADBD2uzQ-1" target="Gw3BAyurNsttADBD2uzQ-3" edge="1">
          <mxGeometry width="50" height="50" relative="1" as="geometry">
            <mxPoint x="40" y="220" as="sourcePoint" />
            <mxPoint x="90" y="170" as="targetPoint" />
          </mxGeometry>
        </mxCell>
        <mxCell id="Gw3BAyurNsttADBD2uzQ-22" value="" style="endArrow=classic;html=1;rounded=0;exitX=1;exitY=0.3333333333333333;exitDx=0;exitDy=0;exitPerimeter=0;entryX=0;entryY=0.5;entryDx=0;entryDy=0;" parent="1" source="Gw3BAyurNsttADBD2uzQ-1" target="Gw3BAyurNsttADBD2uzQ-5" edge="1">
          <mxGeometry width="50" height="50" relative="1" as="geometry">
            <mxPoint x="110" y="330" as="sourcePoint" />
            <mxPoint x="195" y="220" as="targetPoint" />
          </mxGeometry>
        </mxCell>
        <mxCell id="Gw3BAyurNsttADBD2uzQ-23" value="" style="endArrow=classic;html=1;rounded=0;entryX=0;entryY=0.5;entryDx=0;entryDy=0;exitX=1;exitY=0.3333333333333333;exitDx=0;exitDy=0;exitPerimeter=0;" parent="1" source="Gw3BAyurNsttADBD2uzQ-1" target="Gw3BAyurNsttADBD2uzQ-6" edge="1">
          <mxGeometry width="50" height="50" relative="1" as="geometry">
            <mxPoint x="100" y="320" as="sourcePoint" />
            <mxPoint x="195" y="310" as="targetPoint" />
          </mxGeometry>
        </mxCell>
        <mxCell id="Gw3BAyurNsttADBD2uzQ-27" value="відповідь на запит" style="rounded=0;whiteSpace=wrap;html=1;" parent="1" vertex="1">
          <mxGeometry x="910" y="200" width="120" height="60" as="geometry" />
        </mxCell>
        <mxCell id="Gw3BAyurNsttADBD2uzQ-37" value="" style="edgeStyle=orthogonalEdgeStyle;rounded=0;orthogonalLoop=1;jettySize=auto;html=1;" parent="1" source="Gw3BAyurNsttADBD2uzQ-31" target="Gw3BAyurNsttADBD2uzQ-35" edge="1">
          <mxGeometry relative="1" as="geometry" />
        </mxCell>
        <mxCell id="Gw3BAyurNsttADBD2uzQ-31" value="отримання відповіді на запит на доставку" style="rounded=0;whiteSpace=wrap;html=1;fillColor=#dae8fc;strokeColor=#6c8ebf;" parent="1" vertex="1">
          <mxGeometry x="390" y="325" width="120" height="60" as="geometry" />
        </mxCell>
        <mxCell id="Gw3BAyurNsttADBD2uzQ-34" value="" style="edgeStyle=orthogonalEdgeStyle;rounded=0;orthogonalLoop=1;jettySize=auto;html=1;" parent="1" source="Gw3BAyurNsttADBD2uzQ-32" target="Gw3BAyurNsttADBD2uzQ-33" edge="1">
          <mxGeometry relative="1" as="geometry" />
        </mxCell>
        <mxCell id="Gw3BAyurNsttADBD2uzQ-32" value="формування запиту на доставку" style="rounded=0;whiteSpace=wrap;html=1;" parent="1" vertex="1">
          <mxGeometry x="390" y="155" width="120" height="60" as="geometry" />
        </mxCell>
        <mxCell id="Gw3BAyurNsttADBD2uzQ-33" value="відправка запиту на усі бази АЗД" style="rounded=0;whiteSpace=wrap;html=1;fillColor=#dae8fc;strokeColor=#6c8ebf;" parent="1" vertex="1">
          <mxGeometry x="390" y="255" width="120" height="60" as="geometry" />
        </mxCell>
        <mxCell id="Gw3BAyurNsttADBD2uzQ-35" value="відображення відповіді на запит на доставку" style="rounded=0;whiteSpace=wrap;html=1;" parent="1" vertex="1">
          <mxGeometry x="390" y="430" width="120" height="60" as="geometry" />
        </mxCell>
        <mxCell id="Gw3BAyurNsttADBD2uzQ-36" value="підтвердження запиту на доставку" style="rounded=0;whiteSpace=wrap;html=1;" parent="1" vertex="1">
          <mxGeometry x="185" y="370" width="120" height="60" as="geometry" />
        </mxCell>
        <mxCell id="BIXWM4H7OKCVoOfD7rIw-1" value="Перевірка наявності порешкод" style="rounded=0;whiteSpace=wrap;html=1;" vertex="1" parent="1">
          <mxGeometry x="715" y="695" width="120" height="60" as="geometry" />
        </mxCell>
        <mxCell id="BIXWM4H7OKCVoOfD7rIw-2" value="" style="endArrow=classic;html=1;rounded=0;entryX=0;entryY=0.5;entryDx=0;entryDy=0;exitX=1;exitY=0.3333333333333333;exitDx=0;exitDy=0;exitPerimeter=0;" edge="1" parent="1" source="Gw3BAyurNsttADBD2uzQ-1" target="Gw3BAyurNsttADBD2uzQ-36">
          <mxGeometry width="50" height="50" relative="1" as="geometry">
            <mxPoint x="60" y="360" as="sourcePoint" />
            <mxPoint x="195" y="400" as="targetPoint" />
          </mxGeometry>
        </mxCell>
        <mxCell id="BIXWM4H7OKCVoOfD7rIw-3" value="Створення подій" style="rounded=0;whiteSpace=wrap;html=1;" vertex="1" parent="1">
          <mxGeometry x="715" y="925" width="120" height="60" as="geometry" />
        </mxCell>
        <mxCell id="BIXWM4H7OKCVoOfD7rIw-4" value="Трасування посилки&lt;br&gt;(відображення координат)" style="rounded=0;whiteSpace=wrap;html=1;" vertex="1" parent="1">
          <mxGeometry x="390" y="510" width="120" height="60" as="geometry" />
        </mxCell>
        <mxCell id="BIXWM4H7OKCVoOfD7rIw-5" value="Інтерфейс&lt;div&gt;- запит на доставку&lt;br&gt;- відповідь на запит&lt;/div&gt;&lt;div&gt;- логування подій&lt;/div&gt;&lt;div&gt;- отримання координат&lt;/div&gt;" style="text;html=1;align=left;verticalAlign=middle;whiteSpace=wrap;rounded=0;" vertex="1" parent="1">
          <mxGeometry x="540" y="445" width="130" height="105" as="geometry" />
        </mxCell>
        <mxCell id="BIXWM4H7OKCVoOfD7rIw-7" value="Передача координат" style="rounded=0;whiteSpace=wrap;html=1;" vertex="1" parent="1">
          <mxGeometry x="715" y="850" width="120" height="60" as="geometry" />
        </mxCell>
        <mxCell id="BIXWM4H7OKCVoOfD7rIw-12" value="&lt;div&gt;Modules&amp;nbsp;&lt;/div&gt;&lt;div&gt;1) event&lt;/div&gt;&lt;div&gt;2) core&lt;/div&gt;&lt;div&gt;&lt;span style=&quot;white-space: pre;&quot;&gt;&#x9;&lt;/span&gt;2.1) battery&lt;/div&gt;&lt;div style=&quot;&quot;&gt;&lt;span style=&quot;white-space: pre;&quot;&gt;&#x9;&lt;/span&gt;2.2) map&lt;/div&gt;&lt;div&gt;3) base&lt;/div&gt;" style="text;html=1;align=left;verticalAlign=middle;whiteSpace=wrap;rounded=0;" vertex="1" parent="1">
          <mxGeometry x="1180" y="430" width="170" height="130" as="geometry" />
        </mxCell>
      </root>
    </mxGraphModel>
  </diagram>
</mxfile>
